<svg xmlns="http://www.w3.org/2000/svg" width="14.33" height="10.747" viewBox="0 0 14.33 10.747"><path d="M9.314,8.79h1.075a.385.385,0,0,0,.358-.358V4.67a.385.385,0,0,0-.358-.358H9.314a.385.385,0,0,0-.358.358V8.432A.385.385,0,0,0,9.314,8.79ZM12,8.79h1.075a.385.385,0,0,0,.358-.358V1.983a.385.385,0,0,0-.358-.358H12a.385.385,0,0,0-.358.358V8.432A.385.385,0,0,0,12,8.79Zm-8.061,0H5.015a.385.385,0,0,0,.358-.358V6.461A.385.385,0,0,0,5.015,6.1H3.941a.385.385,0,0,0-.358.358v1.97A.385.385,0,0,0,3.941,8.79Zm2.687,0H7.7a.385.385,0,0,0,.358-.358V2.879A.385.385,0,0,0,7.7,2.521H6.628a.385.385,0,0,0-.358.358V8.432A.385.385,0,0,0,6.628,8.79Zm7.255,1.791H1.791V2.073a.448.448,0,0,0-.448-.448h-.9A.448.448,0,0,0,0,2.073v9.4a.9.9,0,0,0,.9.9H13.882a.448.448,0,0,0,.448-.448v-.9A.448.448,0,0,0,13.882,10.581Z" transform="translate(0 -1.625)" fill="#4983bb"/></svg>