<svg xmlns="http://www.w3.org/2000/svg" width="14.403" height="13.555" viewBox="0 0 14.403 13.555"><path d="M13.973,7.625H7.691l4.184,4.184a.425.425,0,0,0,.587.018A6.341,6.341,0,0,0,14.4,8.1a.424.424,0,0,0-.425-.473Zm-.419-1.716A6.369,6.369,0,0,0,7.646,0,.426.426,0,0,0,7.2.43V6.354h5.924A.426.426,0,0,0,13.554,5.909ZM5.93,7.625V1.343A.424.424,0,0,0,5.458.917,6.349,6.349,0,0,0,0,7.423a6.432,6.432,0,0,0,6.431,6.132,6.3,6.3,0,0,0,3.581-1.166.421.421,0,0,0,.042-.638Z" transform="translate(0 0)" fill="#4983bb"/></svg>