<svg xmlns="http://www.w3.org/2000/svg" width="16.619" height="14.773" viewBox="0 0 16.619 14.773"><path d="M14.773,9.233s-1.847,2.673-1.847,3.693a1.847,1.847,0,1,0,3.693,0C16.619,11.906,14.773,9.233,14.773,9.233Zm-.27-2.97L8.51.27A.923.923,0,0,0,7.2.27L4.851,2.624,2.364.137a.461.461,0,0,0-.653,0L1.059.79a.462.462,0,0,0,0,.653L3.545,3.929.811,6.663a2.769,2.769,0,0,0,0,3.917l3.381,3.381a2.769,2.769,0,0,0,3.917,0L14.5,7.568a.923.923,0,0,0,0-1.306ZM11.149,8.311H1.9a.9.9,0,0,1,.214-.341L2.5,7.59,4.851,5.235,6.542,6.926A.923.923,0,0,0,7.847,5.621L6.156,3.93l1.7-1.7,4.687,4.687Z" transform="translate(0)" fill="#4983bb"/></svg>