<svg xmlns="http://www.w3.org/2000/svg" xmlns:xlink="http://www.w3.org/1999/xlink" width="398" height="608" viewBox="0 0 398 608"><defs><clipPath id="a"><rect width="398" height="608" transform="translate(-1 160)" fill="#fff" stroke="#707070" stroke-width="1"/></clipPath><linearGradient id="b" x1="1.029" y1="-0.059" x2="-0.085" y2="0.429" gradientUnits="objectBoundingBox"><stop offset="0" stop-color="#f4cd0d"/><stop offset="1" stop-color="#eb058c"/></linearGradient></defs><g transform="translate(1 -160)" clip-path="url(#a)"><path d="M375.334,130.312c-41.466,9.686-83,4.473-122.975-2.749s-79.866-16.443-121.419-14.638c-26.715,1.171-56.432,8.523-74.918,31.081-17.783,21.7-20.326,51.38-20.158,78.216.128,20.184,1.481,41.092,11.243,57.324,6.777,11.263,17.138,19.444,24.972,29.862,27.3,36.254,19.554,92.415,2.271,139.972C66.221,471.7,56.284,493.6,50.831,516.472s-5.993,47.517,4.274,66.457c10.186,18.777,29.671,29.593,49.945,35.392,41.17,11.767,86.864,5.693,131.059-2.757,97.823-18.794,194.553-49.192,291.005-79.533,35.7-11.223,71.555-22.51,105.9-39.035,19.072-9.157,38.475-20.68,50.688-38.9,15.5-23.136,15.64-55.072.325-74.443-25.693-32.529-83.17-26.414-103.142-63.432-11-20.331-6.522-47.671,1.882-71.7,18-51.558,53.284-102.182,48.2-153.992-3.484-35.587-28.1-65.383-60.794-73.621-34.265-8.628-78.059,5.782-97.439,41.165C452.783,98.6,411.945,121.773,375.334,130.312Z" transform="translate(400.57 236.519) rotate(93)" opacity="0.89" fill="url(#b)"/></g></svg>