<svg xmlns="http://www.w3.org/2000/svg" width="15.941" height="15.941" viewBox="0 0 15.941 15.941"><path d="M15.5,4.427,14.068,5.863a.374.374,0,0,1-.529,0L10.083,2.407a.374.374,0,0,1,0-.529L11.518.442a1.5,1.5,0,0,1,2.114,0L15.5,2.313A1.492,1.492,0,0,1,15.5,4.427ZM8.85,3.11.673,11.287.013,15.07a.748.748,0,0,0,.866.866l3.783-.663L12.839,7.1a.374.374,0,0,0,0-.529L9.382,3.11a.378.378,0,0,0-.532,0ZM3.865,10.586a.434.434,0,0,1,0-.617l4.8-4.8a.436.436,0,0,1,.617.617l-4.8,4.8a.434.434,0,0,1-.617,0ZM2.741,13.2H4.236v1.13l-2.008.352-.968-.968.352-2.008h1.13Z" transform="translate(-0.002 -0.005)" fill="#fff"/></svg>