<svg xmlns="http://www.w3.org/2000/svg" width="13.659" height="13.659" viewBox="0 0 13.659 13.659"><path d="M11.952,5.122V2.061a.854.854,0,0,0-.25-.6L10.494.25a.854.854,0,0,0-.6-.25H2.561a.854.854,0,0,0-.854.854V5.122A1.707,1.707,0,0,0,0,6.83V9.817a.427.427,0,0,0,.427.427H1.707v2.561a.854.854,0,0,0,.854.854H11.1a.854.854,0,0,0,.854-.854V10.244h1.281a.427.427,0,0,0,.427-.427V6.83A1.707,1.707,0,0,0,11.952,5.122Zm-1.707,6.83H3.415V9.391h6.83Zm0-5.976H3.415V1.707H8.537V2.988a.427.427,0,0,0,.427.427h1.281ZM11.525,7.9a.64.64,0,1,1,.64-.64A.64.64,0,0,1,11.525,7.9Z" fill="#4983bb"/></svg>