<svg xmlns="http://www.w3.org/2000/svg" xmlns:xlink="http://www.w3.org/1999/xlink" width="386" height="626" viewBox="0 0 386 626"><defs><clipPath id="a"><rect width="386" height="626" transform="translate(980)" fill="#fff" stroke="#707070" stroke-width="1"/></clipPath><linearGradient id="b" x1="0.5" x2="0.5" y2="1" gradientUnits="objectBoundingBox"><stop offset="0" stop-color="#f4cd0d"/><stop offset="1" stop-color="#eb058c"/></linearGradient></defs><g transform="translate(-980)" clip-path="url(#a)"><path d="M461.588,158.73c-52,12.146-104.083,5.609-154.22-3.447S207.21,134.661,155.1,136.926c-33.5,1.469-70.77,10.688-93.952,38.979-22.3,27.22-25.491,64.434-25.28,98.089.16,25.313,1.857,51.533,14.1,71.889,8.5,14.125,21.493,24.385,31.317,37.449,34.231,45.465,24.522,115.9,2.848,175.536-10.2,27.985-22.658,55.449-29.5,84.138s-7.516,59.59,5.36,83.342c12.775,23.548,37.21,37.112,62.635,44.384,51.63,14.757,108.934,7.139,164.358-3.457,122.677-23.569,243.985-61.691,364.943-99.741C696.7,653.458,741.668,639.3,784.74,618.58c23.918-11.484,48.251-25.935,63.567-48.79,19.439-29.015,19.613-69.064.408-93.357-32.221-40.794-104.3-33.125-129.348-79.548-13.794-25.5-8.179-59.784,2.36-89.92,22.578-64.658,66.823-128.144,60.45-193.119-4.37-44.629-35.236-82-76.24-92.327-42.97-10.821-97.893,7.251-122.2,51.625C558.715,118.956,507.5,148.021,461.588,158.73Z" transform="matrix(0.978, -0.208, 0.208, 0.978, 947.706, -149.688)" opacity="0.89" fill="url(#b)"/></g></svg>