<svg xmlns="http://www.w3.org/2000/svg" width="16.248" height="13" viewBox="0 0 16.248 13"><path d="M15.5,9.478a2.978,2.978,0,0,0,0-1.082l.655-.378A.184.184,0,0,0,16.24,7.8,3.81,3.81,0,0,0,15.4,6.345a.185.185,0,0,0-.229-.036l-.655.378a2.981,2.981,0,0,0-.937-.541V5.39a.185.185,0,0,0-.145-.18,3.831,3.831,0,0,0-1.681,0,.185.185,0,0,0-.145.18v.757a2.981,2.981,0,0,0-.937.541l-.655-.378a.186.186,0,0,0-.229.036A3.81,3.81,0,0,0,8.943,7.8a.187.187,0,0,0,.084.216l.655.378a2.978,2.978,0,0,0,0,1.082l-.655.378a.184.184,0,0,0-.084.216,3.829,3.829,0,0,0,.843,1.457.185.185,0,0,0,.229.036l.655-.378a2.981,2.981,0,0,0,.937.541v.757a.185.185,0,0,0,.145.18,3.831,3.831,0,0,0,1.681,0,.185.185,0,0,0,.145-.18v-.757a2.981,2.981,0,0,0,.937-.541l.655.378a.186.186,0,0,0,.229-.036,3.81,3.81,0,0,0,.843-1.457.187.187,0,0,0-.084-.216L15.5,9.478Zm-2.907.691a1.231,1.231,0,1,1,1.231-1.231A1.233,1.233,0,0,1,12.594,10.169ZM5.688,6.5a3.25,3.25,0,1,0-3.25-3.25A3.25,3.25,0,0,0,5.688,6.5ZM10.8,12.251c-.058-.03-.117-.066-.173-.1l-.2.117a1,1,0,0,1-1.231-.185,4.63,4.63,0,0,1-1.021-1.767.993.993,0,0,1,.454-1.16l.2-.117q0-.1,0-.2l-.2-.117a.992.992,0,0,1-.454-1.16c.023-.074.056-.147.081-.221-.1-.008-.19-.03-.289-.03H7.538a4.42,4.42,0,0,1-3.7,0H3.413A3.413,3.413,0,0,0,0,10.725v1.056A1.219,1.219,0,0,0,1.219,13h8.938a1.217,1.217,0,0,0,.691-.216.989.989,0,0,1-.051-.3Z" fill="#4983bb"/></svg>