<svg xmlns="http://www.w3.org/2000/svg" width="17.042" height="17.042" viewBox="0 0 17.042 17.042"><path d="M8.521.563a8.521,8.521,0,1,0,8.521,8.521A8.52,8.52,0,0,0,8.521.563Zm0,3.3A3.024,3.024,0,1,1,5.5,6.885,3.024,3.024,0,0,1,8.521,3.861Zm0,11.82a6.584,6.584,0,0,1-5.034-2.343,3.831,3.831,0,0,1,3.384-2.055.841.841,0,0,1,.244.038,4.549,4.549,0,0,0,1.405.237,4.532,4.532,0,0,0,1.405-.237.841.841,0,0,1,.244-.038,3.831,3.831,0,0,1,3.384,2.055A6.584,6.584,0,0,1,8.521,15.681Z" transform="translate(0 -0.563)" fill="#fff"/></svg>